<mxfile host="app.diagrams.net" modified="2024-01-10T19:30:21.002Z" agent="Mozilla/5.0 (Windows NT 10.0; Win64; x64) AppleWebKit/537.36 (KHTML, like Gecko) Chrome/120.0.0.0 Safari/537.36" etag="-Oaq5D2aJlCjA81vCKlt" version="22.1.17" type="device">
  <diagram id="C5RBs43oDa-KdzZeNtuy" name="Page-1">
    <mxGraphModel dx="1434" dy="746" grid="1" gridSize="10" guides="1" tooltips="1" connect="1" arrows="1" fold="1" page="1" pageScale="1" pageWidth="1169" pageHeight="827" math="0" shadow="0">
      <root>
        <mxCell id="WIyWlLk6GJQsqaUBKTNV-0" />
        <mxCell id="WIyWlLk6GJQsqaUBKTNV-1" parent="WIyWlLk6GJQsqaUBKTNV-0" />
        <mxCell id="h-C8EH_IHUyE0qIuvBSE-1" value="&lt;b&gt;Animals&lt;/b&gt;" style="swimlane;fontStyle=0;childLayout=stackLayout;horizontal=1;startSize=26;fillColor=none;horizontalStack=0;resizeParent=1;resizeParentMax=0;resizeLast=0;collapsible=1;marginBottom=0;whiteSpace=wrap;html=1;movable=1;resizable=1;rotatable=1;deletable=1;editable=1;locked=0;connectable=1;" parent="WIyWlLk6GJQsqaUBKTNV-1" vertex="1">
          <mxGeometry x="530" y="80" width="150" height="116" as="geometry" />
        </mxCell>
        <mxCell id="S_EHzRJ_jOJ24Jaz1KBo-0" value="Id: int&lt;br style=&quot;border-color: var(--border-color);&quot;&gt;type: string&lt;br style=&quot;border-color: var(--border-color);&quot;&gt;name: string&lt;br style=&quot;border-color: var(--border-color);&quot;&gt;birthdate: date&lt;br style=&quot;border-color: var(--border-color);&quot;&gt;commands: string" style="text;html=1;align=left;verticalAlign=middle;resizable=1;points=[];autosize=1;strokeColor=none;fillColor=none;movable=1;rotatable=1;deletable=1;editable=1;locked=0;connectable=1;" parent="h-C8EH_IHUyE0qIuvBSE-1" vertex="1">
          <mxGeometry y="26" width="150" height="90" as="geometry" />
        </mxCell>
        <mxCell id="h-C8EH_IHUyE0qIuvBSE-13" value="&lt;b&gt;Pets&lt;/b&gt;" style="swimlane;fontStyle=0;childLayout=stackLayout;horizontal=1;startSize=26;fillColor=none;horizontalStack=0;resizeParent=1;resizeParentMax=0;resizeLast=0;collapsible=1;marginBottom=0;whiteSpace=wrap;html=1;" parent="WIyWlLk6GJQsqaUBKTNV-1" vertex="1">
          <mxGeometry x="270" y="280" width="140" height="116" as="geometry" />
        </mxCell>
        <mxCell id="S_EHzRJ_jOJ24Jaz1KBo-3" value="Id: int&lt;br&gt;type: string&lt;br style=&quot;border-color: var(--border-color);&quot;&gt;name: string&lt;br style=&quot;border-color: var(--border-color);&quot;&gt;birthdate: date&lt;br style=&quot;border-color: var(--border-color);&quot;&gt;commands: string" style="text;html=1;align=left;verticalAlign=middle;resizable=1;points=[];autosize=1;strokeColor=none;fillColor=none;movable=1;rotatable=1;deletable=1;editable=1;locked=0;connectable=1;" parent="h-C8EH_IHUyE0qIuvBSE-13" vertex="1">
          <mxGeometry y="26" width="140" height="90" as="geometry" />
        </mxCell>
        <mxCell id="h-C8EH_IHUyE0qIuvBSE-17" value="&lt;b&gt;Pack animals&lt;/b&gt;" style="swimlane;fontStyle=0;childLayout=stackLayout;horizontal=1;startSize=26;fillColor=none;horizontalStack=0;resizeParent=1;resizeParentMax=0;resizeLast=0;collapsible=1;marginBottom=0;whiteSpace=wrap;html=1;" parent="WIyWlLk6GJQsqaUBKTNV-1" vertex="1">
          <mxGeometry x="800" y="280" width="140" height="116" as="geometry" />
        </mxCell>
        <mxCell id="S_EHzRJ_jOJ24Jaz1KBo-5" value="Id: int&lt;br style=&quot;border-color: var(--border-color);&quot;&gt;type: string&lt;br style=&quot;border-color: var(--border-color);&quot;&gt;name: string&lt;br style=&quot;border-color: var(--border-color);&quot;&gt;birthdate: date&lt;br style=&quot;border-color: var(--border-color);&quot;&gt;commands: string" style="text;html=1;align=left;verticalAlign=middle;resizable=1;points=[];autosize=1;strokeColor=none;fillColor=none;movable=1;rotatable=1;deletable=1;editable=1;locked=0;connectable=1;" parent="h-C8EH_IHUyE0qIuvBSE-17" vertex="1">
          <mxGeometry y="26" width="140" height="90" as="geometry" />
        </mxCell>
        <mxCell id="h-C8EH_IHUyE0qIuvBSE-22" value="Extends" style="endArrow=block;endSize=16;endFill=0;html=1;rounded=0;exitX=0.5;exitY=0;exitDx=0;exitDy=0;entryX=0.329;entryY=1.016;entryDx=0;entryDy=0;entryPerimeter=0;" parent="WIyWlLk6GJQsqaUBKTNV-1" source="h-C8EH_IHUyE0qIuvBSE-13" target="S_EHzRJ_jOJ24Jaz1KBo-0" edge="1">
          <mxGeometry x="-0.2174" y="10" width="160" relative="1" as="geometry">
            <mxPoint x="360" y="240" as="sourcePoint" />
            <mxPoint x="580" y="200" as="targetPoint" />
            <Array as="points">
              <mxPoint x="340" y="230" />
              <mxPoint x="350" y="230" />
              <mxPoint x="410" y="230" />
              <mxPoint x="510" y="230" />
              <mxPoint x="580" y="230" />
            </Array>
            <mxPoint as="offset" />
          </mxGeometry>
        </mxCell>
        <mxCell id="h-C8EH_IHUyE0qIuvBSE-23" value="Extends" style="endArrow=block;endSize=16;endFill=0;html=1;rounded=0;exitX=0.5;exitY=0;exitDx=0;exitDy=0;entryX=0.599;entryY=1.013;entryDx=0;entryDy=0;entryPerimeter=0;" parent="WIyWlLk6GJQsqaUBKTNV-1" source="h-C8EH_IHUyE0qIuvBSE-17" target="S_EHzRJ_jOJ24Jaz1KBo-0" edge="1">
          <mxGeometry x="-0.3043" y="-10" width="160" relative="1" as="geometry">
            <mxPoint x="720" y="270" as="sourcePoint" />
            <mxPoint x="620" y="200" as="targetPoint" />
            <Array as="points">
              <mxPoint x="870" y="230" />
              <mxPoint x="790" y="230" />
              <mxPoint x="720" y="230" />
              <mxPoint x="620" y="230" />
            </Array>
            <mxPoint as="offset" />
          </mxGeometry>
        </mxCell>
        <mxCell id="h-C8EH_IHUyE0qIuvBSE-24" value="Dogs" style="swimlane;fontStyle=1;align=center;verticalAlign=top;childLayout=stackLayout;horizontal=1;startSize=26;horizontalStack=0;resizeParent=1;resizeParentMax=0;resizeLast=0;collapsible=1;marginBottom=0;whiteSpace=wrap;html=1;" parent="WIyWlLk6GJQsqaUBKTNV-1" vertex="1">
          <mxGeometry x="130" y="460" width="130" height="210" as="geometry" />
        </mxCell>
        <mxCell id="h-C8EH_IHUyE0qIuvBSE-25" value="id: int&lt;br style=&quot;border-color: var(--border-color);&quot;&gt;type: string&lt;br style=&quot;border-color: var(--border-color);&quot;&gt;name:&amp;nbsp; string&lt;br style=&quot;border-color: var(--border-color);&quot;&gt;birthdate: date" style="text;strokeColor=none;fillColor=none;align=left;verticalAlign=top;spacingLeft=4;spacingRight=4;overflow=hidden;rotatable=0;points=[[0,0.5],[1,0.5]];portConstraint=eastwest;whiteSpace=wrap;html=1;" parent="h-C8EH_IHUyE0qIuvBSE-24" vertex="1">
          <mxGeometry y="26" width="130" height="64" as="geometry" />
        </mxCell>
        <mxCell id="h-C8EH_IHUyE0qIuvBSE-26" value="" style="line;strokeWidth=1;fillColor=none;align=left;verticalAlign=middle;spacingTop=-1;spacingLeft=3;spacingRight=3;rotatable=0;labelPosition=right;points=[];portConstraint=eastwest;strokeColor=inherit;" parent="h-C8EH_IHUyE0qIuvBSE-24" vertex="1">
          <mxGeometry y="90" width="130" height="8" as="geometry" />
        </mxCell>
        <mxCell id="h-C8EH_IHUyE0qIuvBSE-27" value="Commands:&lt;br&gt;+ Sit()&lt;br&gt;+ Stay()&lt;br&gt;+ Fetch()&lt;br&gt;+ Pounce()&lt;br&gt;+ Roll()&lt;br&gt;+ Bark()" style="text;strokeColor=none;fillColor=none;align=left;verticalAlign=top;spacingLeft=4;spacingRight=4;overflow=hidden;rotatable=0;points=[[0,0.5],[1,0.5]];portConstraint=eastwest;whiteSpace=wrap;html=1;" parent="h-C8EH_IHUyE0qIuvBSE-24" vertex="1">
          <mxGeometry y="98" width="130" height="112" as="geometry" />
        </mxCell>
        <mxCell id="h-C8EH_IHUyE0qIuvBSE-28" value="Cats" style="swimlane;fontStyle=1;align=center;verticalAlign=top;childLayout=stackLayout;horizontal=1;startSize=26;horizontalStack=0;resizeParent=1;resizeParentMax=0;resizeLast=0;collapsible=1;marginBottom=0;whiteSpace=wrap;html=1;" parent="WIyWlLk6GJQsqaUBKTNV-1" vertex="1">
          <mxGeometry x="280" y="460" width="130" height="200" as="geometry" />
        </mxCell>
        <mxCell id="h-C8EH_IHUyE0qIuvBSE-29" value="id: int&lt;br style=&quot;border-color: var(--border-color);&quot;&gt;type: string&lt;br style=&quot;border-color: var(--border-color);&quot;&gt;name:&amp;nbsp; string&lt;br style=&quot;border-color: var(--border-color);&quot;&gt;birthdate: date" style="text;strokeColor=none;fillColor=none;align=left;verticalAlign=top;spacingLeft=4;spacingRight=4;overflow=hidden;rotatable=0;points=[[0,0.5],[1,0.5]];portConstraint=eastwest;whiteSpace=wrap;html=1;" parent="h-C8EH_IHUyE0qIuvBSE-28" vertex="1">
          <mxGeometry y="26" width="130" height="64" as="geometry" />
        </mxCell>
        <mxCell id="h-C8EH_IHUyE0qIuvBSE-30" value="" style="line;strokeWidth=1;fillColor=none;align=left;verticalAlign=middle;spacingTop=-1;spacingLeft=3;spacingRight=3;rotatable=0;labelPosition=right;points=[];portConstraint=eastwest;strokeColor=inherit;" parent="h-C8EH_IHUyE0qIuvBSE-28" vertex="1">
          <mxGeometry y="90" width="130" height="8" as="geometry" />
        </mxCell>
        <mxCell id="h-C8EH_IHUyE0qIuvBSE-31" value="Commands:&lt;br&gt;+ Sit()&lt;br style=&quot;border-color: var(--border-color);&quot;&gt;+ Scratch()&lt;br style=&quot;border-color: var(--border-color);&quot;&gt;+ Pounce()&lt;br style=&quot;border-color: var(--border-color);&quot;&gt;+ Jump()&lt;br style=&quot;border-color: var(--border-color);&quot;&gt;+ Meow()" style="text;strokeColor=none;fillColor=none;align=left;verticalAlign=top;spacingLeft=4;spacingRight=4;overflow=hidden;rotatable=0;points=[[0,0.5],[1,0.5]];portConstraint=eastwest;whiteSpace=wrap;html=1;" parent="h-C8EH_IHUyE0qIuvBSE-28" vertex="1">
          <mxGeometry y="98" width="130" height="102" as="geometry" />
        </mxCell>
        <mxCell id="h-C8EH_IHUyE0qIuvBSE-32" value="Hamsters" style="swimlane;fontStyle=1;align=center;verticalAlign=top;childLayout=stackLayout;horizontal=1;startSize=26;horizontalStack=0;resizeParent=1;resizeParentMax=0;resizeLast=0;collapsible=1;marginBottom=0;whiteSpace=wrap;html=1;" parent="WIyWlLk6GJQsqaUBKTNV-1" vertex="1">
          <mxGeometry x="430" y="460" width="130" height="200" as="geometry" />
        </mxCell>
        <mxCell id="h-C8EH_IHUyE0qIuvBSE-33" value="id: int&lt;br&gt;type: string&lt;br style=&quot;border-color: var(--border-color);&quot;&gt;name:&amp;nbsp; string&lt;br style=&quot;border-color: var(--border-color);&quot;&gt;birthdate: date" style="text;strokeColor=none;fillColor=none;align=left;verticalAlign=top;spacingLeft=4;spacingRight=4;overflow=hidden;rotatable=0;points=[[0,0.5],[1,0.5]];portConstraint=eastwest;whiteSpace=wrap;html=1;" parent="h-C8EH_IHUyE0qIuvBSE-32" vertex="1">
          <mxGeometry y="26" width="130" height="64" as="geometry" />
        </mxCell>
        <mxCell id="h-C8EH_IHUyE0qIuvBSE-34" value="" style="line;strokeWidth=1;fillColor=none;align=left;verticalAlign=middle;spacingTop=-1;spacingLeft=3;spacingRight=3;rotatable=0;labelPosition=right;points=[];portConstraint=eastwest;strokeColor=inherit;" parent="h-C8EH_IHUyE0qIuvBSE-32" vertex="1">
          <mxGeometry y="90" width="130" height="8" as="geometry" />
        </mxCell>
        <mxCell id="h-C8EH_IHUyE0qIuvBSE-35" value="Commands:&lt;br&gt;+ Roll()&lt;br style=&quot;border-color: var(--border-color);&quot;&gt;+ Hide()&lt;br style=&quot;border-color: var(--border-color);&quot;&gt;+ Spin()" style="text;strokeColor=none;fillColor=none;align=left;verticalAlign=top;spacingLeft=4;spacingRight=4;overflow=hidden;rotatable=0;points=[[0,0.5],[1,0.5]];portConstraint=eastwest;whiteSpace=wrap;html=1;" parent="h-C8EH_IHUyE0qIuvBSE-32" vertex="1">
          <mxGeometry y="98" width="130" height="102" as="geometry" />
        </mxCell>
        <mxCell id="h-C8EH_IHUyE0qIuvBSE-36" value="Horses" style="swimlane;fontStyle=1;align=center;verticalAlign=top;childLayout=stackLayout;horizontal=1;startSize=26;horizontalStack=0;resizeParent=1;resizeParentMax=0;resizeLast=0;collapsible=1;marginBottom=0;whiteSpace=wrap;html=1;" parent="WIyWlLk6GJQsqaUBKTNV-1" vertex="1">
          <mxGeometry x="640" y="460" width="130" height="200" as="geometry" />
        </mxCell>
        <mxCell id="h-C8EH_IHUyE0qIuvBSE-37" value="id: int&lt;br style=&quot;border-color: var(--border-color);&quot;&gt;type: string&lt;br style=&quot;border-color: var(--border-color);&quot;&gt;name:&amp;nbsp; string&lt;br style=&quot;border-color: var(--border-color);&quot;&gt;birthdate: date" style="text;strokeColor=none;fillColor=none;align=left;verticalAlign=top;spacingLeft=4;spacingRight=4;overflow=hidden;rotatable=0;points=[[0,0.5],[1,0.5]];portConstraint=eastwest;whiteSpace=wrap;html=1;" parent="h-C8EH_IHUyE0qIuvBSE-36" vertex="1">
          <mxGeometry y="26" width="130" height="64" as="geometry" />
        </mxCell>
        <mxCell id="h-C8EH_IHUyE0qIuvBSE-38" value="" style="line;strokeWidth=1;fillColor=none;align=left;verticalAlign=middle;spacingTop=-1;spacingLeft=3;spacingRight=3;rotatable=0;labelPosition=right;points=[];portConstraint=eastwest;strokeColor=inherit;" parent="h-C8EH_IHUyE0qIuvBSE-36" vertex="1">
          <mxGeometry y="90" width="130" height="8" as="geometry" />
        </mxCell>
        <mxCell id="h-C8EH_IHUyE0qIuvBSE-39" value="Commands:&lt;br&gt;+ Trot()&lt;br&gt;+ Canter()&lt;br&gt;+ Gallop()&lt;br&gt;+ Jump()" style="text;strokeColor=none;fillColor=none;align=left;verticalAlign=top;spacingLeft=4;spacingRight=4;overflow=hidden;rotatable=0;points=[[0,0.5],[1,0.5]];portConstraint=eastwest;whiteSpace=wrap;html=1;" parent="h-C8EH_IHUyE0qIuvBSE-36" vertex="1">
          <mxGeometry y="98" width="130" height="102" as="geometry" />
        </mxCell>
        <mxCell id="h-C8EH_IHUyE0qIuvBSE-40" value="Camels" style="swimlane;fontStyle=1;align=center;verticalAlign=top;childLayout=stackLayout;horizontal=1;startSize=26;horizontalStack=0;resizeParent=1;resizeParentMax=0;resizeLast=0;collapsible=1;marginBottom=0;whiteSpace=wrap;html=1;" parent="WIyWlLk6GJQsqaUBKTNV-1" vertex="1">
          <mxGeometry x="790" y="460" width="130" height="212" as="geometry" />
        </mxCell>
        <mxCell id="h-C8EH_IHUyE0qIuvBSE-41" value="id: int&lt;br style=&quot;border-color: var(--border-color);&quot;&gt;type: string&lt;br style=&quot;border-color: var(--border-color);&quot;&gt;name:&amp;nbsp; string&lt;br style=&quot;border-color: var(--border-color);&quot;&gt;birthdate: date" style="text;strokeColor=none;fillColor=none;align=left;verticalAlign=top;spacingLeft=4;spacingRight=4;overflow=hidden;rotatable=0;points=[[0,0.5],[1,0.5]];portConstraint=eastwest;whiteSpace=wrap;html=1;" parent="h-C8EH_IHUyE0qIuvBSE-40" vertex="1">
          <mxGeometry y="26" width="130" height="74" as="geometry" />
        </mxCell>
        <mxCell id="h-C8EH_IHUyE0qIuvBSE-42" value="" style="line;strokeWidth=1;fillColor=none;align=left;verticalAlign=middle;spacingTop=-1;spacingLeft=3;spacingRight=3;rotatable=0;labelPosition=right;points=[];portConstraint=eastwest;strokeColor=inherit;" parent="h-C8EH_IHUyE0qIuvBSE-40" vertex="1">
          <mxGeometry y="100" width="130" height="10" as="geometry" />
        </mxCell>
        <mxCell id="h-C8EH_IHUyE0qIuvBSE-43" value="Commands:&lt;br&gt;+ Walk()&lt;br&gt;+ Sit()&lt;br&gt;+ Run()&lt;br&gt;+ Jump()" style="text;strokeColor=none;fillColor=none;align=left;verticalAlign=top;spacingLeft=4;spacingRight=4;overflow=hidden;rotatable=0;points=[[0,0.5],[1,0.5]];portConstraint=eastwest;whiteSpace=wrap;html=1;" parent="h-C8EH_IHUyE0qIuvBSE-40" vertex="1">
          <mxGeometry y="110" width="130" height="102" as="geometry" />
        </mxCell>
        <mxCell id="h-C8EH_IHUyE0qIuvBSE-44" value="Donkeys" style="swimlane;fontStyle=1;align=center;verticalAlign=top;childLayout=stackLayout;horizontal=1;startSize=26;horizontalStack=0;resizeParent=1;resizeParentMax=0;resizeLast=0;collapsible=1;marginBottom=0;whiteSpace=wrap;html=1;" parent="WIyWlLk6GJQsqaUBKTNV-1" vertex="1">
          <mxGeometry x="940" y="460" width="130" height="200" as="geometry" />
        </mxCell>
        <mxCell id="h-C8EH_IHUyE0qIuvBSE-45" value="id: int&lt;br style=&quot;border-color: var(--border-color);&quot;&gt;type: string&lt;br style=&quot;border-color: var(--border-color);&quot;&gt;name:&amp;nbsp; string&lt;br style=&quot;border-color: var(--border-color);&quot;&gt;birthdate: date" style="text;strokeColor=none;fillColor=none;align=left;verticalAlign=top;spacingLeft=4;spacingRight=4;overflow=hidden;rotatable=0;points=[[0,0.5],[1,0.5]];portConstraint=eastwest;whiteSpace=wrap;html=1;" parent="h-C8EH_IHUyE0qIuvBSE-44" vertex="1">
          <mxGeometry y="26" width="130" height="64" as="geometry" />
        </mxCell>
        <mxCell id="h-C8EH_IHUyE0qIuvBSE-46" value="" style="line;strokeWidth=1;fillColor=none;align=left;verticalAlign=middle;spacingTop=-1;spacingLeft=3;spacingRight=3;rotatable=0;labelPosition=right;points=[];portConstraint=eastwest;strokeColor=inherit;" parent="h-C8EH_IHUyE0qIuvBSE-44" vertex="1">
          <mxGeometry y="90" width="130" height="8" as="geometry" />
        </mxCell>
        <mxCell id="h-C8EH_IHUyE0qIuvBSE-47" value="Commands:&lt;br&gt;+ Jump()&lt;br&gt;+ Bray()&lt;br&gt;+ Walk()&lt;br&gt;+ Kick()&lt;br&gt;+ Run()" style="text;strokeColor=none;fillColor=none;align=left;verticalAlign=top;spacingLeft=4;spacingRight=4;overflow=hidden;rotatable=0;points=[[0,0.5],[1,0.5]];portConstraint=eastwest;whiteSpace=wrap;html=1;" parent="h-C8EH_IHUyE0qIuvBSE-44" vertex="1">
          <mxGeometry y="98" width="130" height="102" as="geometry" />
        </mxCell>
        <mxCell id="h-C8EH_IHUyE0qIuvBSE-53" value="Extends" style="endArrow=block;endSize=16;endFill=0;html=1;rounded=0;entryX=0.5;entryY=1;entryDx=0;entryDy=0;" parent="WIyWlLk6GJQsqaUBKTNV-1" target="h-C8EH_IHUyE0qIuvBSE-13" edge="1">
          <mxGeometry x="0.2941" y="10" width="160" relative="1" as="geometry">
            <mxPoint x="340" y="430" as="sourcePoint" />
            <mxPoint x="330" y="420" as="targetPoint" />
            <Array as="points">
              <mxPoint x="200" y="430" />
              <mxPoint x="340" y="430" />
            </Array>
            <mxPoint as="offset" />
          </mxGeometry>
        </mxCell>
        <mxCell id="h-C8EH_IHUyE0qIuvBSE-57" value="" style="endArrow=none;html=1;rounded=0;exitX=0.5;exitY=0;exitDx=0;exitDy=0;" parent="WIyWlLk6GJQsqaUBKTNV-1" source="h-C8EH_IHUyE0qIuvBSE-24" edge="1">
          <mxGeometry width="50" height="50" relative="1" as="geometry">
            <mxPoint x="130" y="440" as="sourcePoint" />
            <mxPoint x="200" y="430" as="targetPoint" />
            <Array as="points">
              <mxPoint x="195" y="430" />
            </Array>
          </mxGeometry>
        </mxCell>
        <mxCell id="h-C8EH_IHUyE0qIuvBSE-59" value="" style="endArrow=none;html=1;rounded=0;exitX=0.461;exitY=0.006;exitDx=0;exitDy=0;exitPerimeter=0;" parent="WIyWlLk6GJQsqaUBKTNV-1" source="h-C8EH_IHUyE0qIuvBSE-28" edge="1">
          <mxGeometry width="50" height="50" relative="1" as="geometry">
            <mxPoint x="390" y="440" as="sourcePoint" />
            <mxPoint x="340" y="430" as="targetPoint" />
          </mxGeometry>
        </mxCell>
        <mxCell id="h-C8EH_IHUyE0qIuvBSE-61" value="" style="endArrow=none;html=1;rounded=0;exitX=0.462;exitY=0.007;exitDx=0;exitDy=0;exitPerimeter=0;" parent="WIyWlLk6GJQsqaUBKTNV-1" source="h-C8EH_IHUyE0qIuvBSE-32" edge="1">
          <mxGeometry width="50" height="50" relative="1" as="geometry">
            <mxPoint x="440" y="438" as="sourcePoint" />
            <mxPoint x="340" y="430" as="targetPoint" />
            <Array as="points">
              <mxPoint x="490" y="450" />
              <mxPoint x="490" y="430" />
            </Array>
          </mxGeometry>
        </mxCell>
        <mxCell id="h-C8EH_IHUyE0qIuvBSE-62" value="Extends" style="endArrow=block;endSize=16;endFill=0;html=1;rounded=0;entryX=0.492;entryY=1.012;entryDx=0;entryDy=0;entryPerimeter=0;" parent="WIyWlLk6GJQsqaUBKTNV-1" target="S_EHzRJ_jOJ24Jaz1KBo-5" edge="1">
          <mxGeometry x="0.2941" y="10" width="160" relative="1" as="geometry">
            <mxPoint x="870" y="430" as="sourcePoint" />
            <mxPoint x="870" y="370" as="targetPoint" />
            <Array as="points">
              <mxPoint x="730" y="430" />
              <mxPoint x="800" y="430" />
              <mxPoint x="870" y="430" />
            </Array>
            <mxPoint as="offset" />
          </mxGeometry>
        </mxCell>
        <mxCell id="h-C8EH_IHUyE0qIuvBSE-63" value="" style="endArrow=none;html=1;rounded=0;exitX=0.5;exitY=0;exitDx=0;exitDy=0;" parent="WIyWlLk6GJQsqaUBKTNV-1" edge="1">
          <mxGeometry width="50" height="50" relative="1" as="geometry">
            <mxPoint x="702.5" y="460" as="sourcePoint" />
            <mxPoint x="730" y="430" as="targetPoint" />
            <Array as="points">
              <mxPoint x="702.5" y="430" />
            </Array>
          </mxGeometry>
        </mxCell>
        <mxCell id="h-C8EH_IHUyE0qIuvBSE-64" value="" style="endArrow=none;html=1;rounded=0;exitX=0.461;exitY=0.006;exitDx=0;exitDy=0;exitPerimeter=0;" parent="WIyWlLk6GJQsqaUBKTNV-1" edge="1">
          <mxGeometry width="50" height="50" relative="1" as="geometry">
            <mxPoint x="869.66" y="460" as="sourcePoint" />
            <mxPoint x="869.66" y="429" as="targetPoint" />
          </mxGeometry>
        </mxCell>
        <mxCell id="h-C8EH_IHUyE0qIuvBSE-65" value="" style="endArrow=none;html=1;rounded=0;exitX=0.462;exitY=0.007;exitDx=0;exitDy=0;exitPerimeter=0;" parent="WIyWlLk6GJQsqaUBKTNV-1" edge="1">
          <mxGeometry width="50" height="50" relative="1" as="geometry">
            <mxPoint x="1000" y="460" as="sourcePoint" />
            <mxPoint x="870" y="429" as="targetPoint" />
            <Array as="points">
              <mxPoint x="1000" y="449" />
              <mxPoint x="1000" y="429" />
            </Array>
          </mxGeometry>
        </mxCell>
      </root>
    </mxGraphModel>
  </diagram>
</mxfile>
